<mxfile host="app.diagrams.net" agent="Mozilla/5.0 (Windows NT 10.0; Win64; x64) AppleWebKit/537.36 (KHTML, like Gecko) Chrome/128.0.0.0 Safari/537.36" version="24.7.10">
  <diagram id="clC8QdsPTIHRsGUD1VUs" name="Page-1">
    <mxGraphModel dx="2537" dy="908" grid="1" gridSize="10" guides="1" tooltips="1" connect="1" arrows="1" fold="1" page="1" pageScale="1" pageWidth="850" pageHeight="1100" math="0" shadow="0">
      <root>
        <mxCell id="0" />
        <mxCell id="1" parent="0" />
        <mxCell id="M_qrSPq5CSGo5l-JPhvI-51" value="" style="rounded=0;whiteSpace=wrap;html=1;shadow=0;glass=0;labelBackgroundColor=none;sketch=1;fillStyle=auto;fontSize=20;opacity=50;strokeColor=none;" parent="1" vertex="1">
          <mxGeometry x="-30" y="20" width="940" height="690" as="geometry" />
        </mxCell>
        <mxCell id="M_qrSPq5CSGo5l-JPhvI-26" style="edgeStyle=orthogonalEdgeStyle;curved=1;rounded=0;orthogonalLoop=1;jettySize=auto;html=1;fontSize=20;fontColor=#1A1A1A;entryX=0.567;entryY=-0.025;entryDx=0;entryDy=0;entryPerimeter=0;" parent="1" source="M_qrSPq5CSGo5l-JPhvI-2" target="ZrOXXM6fzs_e_1bx1SVP-4" edge="1">
          <mxGeometry relative="1" as="geometry">
            <mxPoint x="120" y="430" as="targetPoint" />
          </mxGeometry>
        </mxCell>
        <mxCell id="M_qrSPq5CSGo5l-JPhvI-43" style="edgeStyle=orthogonalEdgeStyle;orthogonalLoop=1;jettySize=auto;html=1;entryX=0.071;entryY=0.005;entryDx=0;entryDy=0;entryPerimeter=0;fontSize=20;fontColor=#1A1A1A;startArrow=classic;startFill=1;dashed=1;curved=1;strokeColor=#B5739D;strokeWidth=2;" parent="1" source="M_qrSPq5CSGo5l-JPhvI-2" target="M_qrSPq5CSGo5l-JPhvI-31" edge="1">
          <mxGeometry relative="1" as="geometry">
            <Array as="points">
              <mxPoint x="140" y="400" />
              <mxPoint x="244" y="400" />
            </Array>
          </mxGeometry>
        </mxCell>
        <mxCell id="M_qrSPq5CSGo5l-JPhvI-2" value="&lt;font color=&quot;#1a1a1a&quot; style=&quot;font-size: 20px;&quot;&gt;&lt;b style=&quot;&quot;&gt;Flight Module&lt;/b&gt;&lt;/font&gt;" style="rounded=1;whiteSpace=wrap;html=1;fontSize=17;fillColor=#d80073;fontColor=#ffffff;strokeColor=#A50040;sketch=1;opacity=50;" parent="1" vertex="1">
          <mxGeometry x="-10" y="270" width="210" height="60" as="geometry" />
        </mxCell>
        <mxCell id="M_qrSPq5CSGo5l-JPhvI-28" style="edgeStyle=orthogonalEdgeStyle;curved=1;rounded=0;orthogonalLoop=1;jettySize=auto;html=1;entryX=0.5;entryY=0;entryDx=0;entryDy=0;entryPerimeter=0;fontSize=20;fontColor=#1A1A1A;" parent="1" source="M_qrSPq5CSGo5l-JPhvI-3" edge="1">
          <mxGeometry relative="1" as="geometry">
            <mxPoint x="530" y="440" as="targetPoint" />
          </mxGeometry>
        </mxCell>
        <mxCell id="M_qrSPq5CSGo5l-JPhvI-44" style="edgeStyle=orthogonalEdgeStyle;curved=1;rounded=0;orthogonalLoop=1;jettySize=auto;html=1;fontSize=20;fontColor=#1A1A1A;startArrow=classic;startFill=1;dashed=1;strokeWidth=2;strokeColor=#B5739D;" parent="1" edge="1">
          <mxGeometry relative="1" as="geometry">
            <mxPoint x="444" y="605" as="targetPoint" />
            <mxPoint x="521" y="330" as="sourcePoint" />
            <Array as="points">
              <mxPoint x="521" y="415" />
              <mxPoint x="444" y="415" />
            </Array>
          </mxGeometry>
        </mxCell>
        <mxCell id="M_qrSPq5CSGo5l-JPhvI-3" value="Identity Module" style="rounded=1;whiteSpace=wrap;html=1;fontSize=20;fillColor=#d80073;fontColor=#1A1A1A;strokeColor=#A50040;sketch=1;opacity=50;fontStyle=1" parent="1" vertex="1">
          <mxGeometry x="460" y="270" width="210" height="60" as="geometry" />
        </mxCell>
        <mxCell id="M_qrSPq5CSGo5l-JPhvI-27" style="edgeStyle=orthogonalEdgeStyle;curved=1;rounded=0;orthogonalLoop=1;jettySize=auto;html=1;fontSize=20;fontColor=#1A1A1A;entryX=0.5;entryY=0;entryDx=0;entryDy=0;entryPerimeter=0;" parent="1" source="M_qrSPq5CSGo5l-JPhvI-4" target="ZrOXXM6fzs_e_1bx1SVP-2" edge="1">
          <mxGeometry relative="1" as="geometry">
            <mxPoint x="320" y="430" as="targetPoint" />
          </mxGeometry>
        </mxCell>
        <mxCell id="M_qrSPq5CSGo5l-JPhvI-41" style="edgeStyle=orthogonalEdgeStyle;curved=1;rounded=0;orthogonalLoop=1;jettySize=auto;html=1;fontSize=20;fontColor=#1A1A1A;startArrow=classic;startFill=1;dashed=1;strokeColor=#B5739D;strokeWidth=2;" parent="1" edge="1">
          <mxGeometry relative="1" as="geometry">
            <mxPoint x="342" y="330" as="sourcePoint" />
            <mxPoint x="432" y="605" as="targetPoint" />
            <Array as="points">
              <mxPoint x="342" y="415" />
              <mxPoint x="432" y="415" />
              <mxPoint x="432" y="605" />
            </Array>
          </mxGeometry>
        </mxCell>
        <mxCell id="M_qrSPq5CSGo5l-JPhvI-4" value="Passenger Module" style="rounded=1;whiteSpace=wrap;html=1;fontSize=20;fillColor=#d80073;fontColor=#1A1A1A;strokeColor=#A50040;sketch=1;fontStyle=1;opacity=60;" parent="1" vertex="1">
          <mxGeometry x="222.5" y="270" width="215" height="60" as="geometry" />
        </mxCell>
        <mxCell id="M_qrSPq5CSGo5l-JPhvI-29" style="edgeStyle=orthogonalEdgeStyle;curved=1;rounded=0;orthogonalLoop=1;jettySize=auto;html=1;entryX=0.5;entryY=0;entryDx=0;entryDy=0;entryPerimeter=0;fontSize=20;fontColor=#1A1A1A;" parent="1" source="M_qrSPq5CSGo5l-JPhvI-5" target="M_qrSPq5CSGo5l-JPhvI-10" edge="1">
          <mxGeometry relative="1" as="geometry" />
        </mxCell>
        <mxCell id="M_qrSPq5CSGo5l-JPhvI-47" style="edgeStyle=orthogonalEdgeStyle;curved=1;rounded=0;orthogonalLoop=1;jettySize=auto;html=1;fontSize=20;fontColor=#1A1A1A;entryX=0.949;entryY=-0.067;entryDx=0;entryDy=0;entryPerimeter=0;startArrow=classic;startFill=1;dashed=1;strokeWidth=2;strokeColor=#B5739D;fillColor=#cce5ff;" parent="1" edge="1">
          <mxGeometry relative="1" as="geometry">
            <mxPoint x="596.0900000000001" y="607.98" as="targetPoint" />
            <mxPoint x="717" y="332" as="sourcePoint" />
            <Array as="points">
              <mxPoint x="717" y="402" />
              <mxPoint x="596" y="402" />
            </Array>
          </mxGeometry>
        </mxCell>
        <mxCell id="M_qrSPq5CSGo5l-JPhvI-5" value="Booking Module" style="rounded=1;whiteSpace=wrap;html=1;fontSize=20;fontStyle=1;fillColor=#d80073;fontColor=#1A1A1A;strokeColor=#A50040;sketch=1;opacity=50;" parent="1" vertex="1">
          <mxGeometry x="690" y="270" width="200" height="60" as="geometry" />
        </mxCell>
        <mxCell id="M_qrSPq5CSGo5l-JPhvI-18" style="edgeStyle=orthogonalEdgeStyle;rounded=0;orthogonalLoop=1;jettySize=auto;html=1;entryX=0.5;entryY=0;entryDx=0;entryDy=0;fontSize=17;curved=1;strokeColor=#6666FF;" parent="1" source="M_qrSPq5CSGo5l-JPhvI-6" target="M_qrSPq5CSGo5l-JPhvI-2" edge="1">
          <mxGeometry relative="1" as="geometry" />
        </mxCell>
        <mxCell id="M_qrSPq5CSGo5l-JPhvI-19" style="edgeStyle=orthogonalEdgeStyle;curved=1;rounded=0;orthogonalLoop=1;jettySize=auto;html=1;entryX=0.5;entryY=0;entryDx=0;entryDy=0;fontSize=17;strokeColor=#6666FF;" parent="1" source="M_qrSPq5CSGo5l-JPhvI-6" target="M_qrSPq5CSGo5l-JPhvI-4" edge="1">
          <mxGeometry relative="1" as="geometry" />
        </mxCell>
        <mxCell id="M_qrSPq5CSGo5l-JPhvI-20" style="edgeStyle=orthogonalEdgeStyle;curved=1;rounded=0;orthogonalLoop=1;jettySize=auto;html=1;entryX=0.437;entryY=0.029;entryDx=0;entryDy=0;entryPerimeter=0;fontSize=17;strokeColor=#6666FF;" parent="1" source="M_qrSPq5CSGo5l-JPhvI-6" target="M_qrSPq5CSGo5l-JPhvI-3" edge="1">
          <mxGeometry relative="1" as="geometry" />
        </mxCell>
        <mxCell id="M_qrSPq5CSGo5l-JPhvI-21" style="edgeStyle=orthogonalEdgeStyle;curved=1;rounded=0;orthogonalLoop=1;jettySize=auto;html=1;fontSize=17;strokeColor=#6666FF;" parent="1" source="M_qrSPq5CSGo5l-JPhvI-6" target="M_qrSPq5CSGo5l-JPhvI-5" edge="1">
          <mxGeometry relative="1" as="geometry" />
        </mxCell>
        <mxCell id="M_qrSPq5CSGo5l-JPhvI-6" value="&lt;font style=&quot;font-size: 20px;&quot; color=&quot;#1a1a1a&quot;&gt;&lt;b&gt;Api&lt;/b&gt;&lt;/font&gt;" style="rounded=1;whiteSpace=wrap;html=1;fontSize=17;fillColor=#1ba1e2;strokeColor=default;sketch=1;shadow=0;glass=0;fontColor=#ffffff;fillStyle=auto;opacity=50;" parent="1" vertex="1">
          <mxGeometry x="150" y="80" width="540" height="60" as="geometry" />
        </mxCell>
        <mxCell id="M_qrSPq5CSGo5l-JPhvI-10" value="Event&lt;div&gt;Store&lt;/div&gt;" style="shape=cylinder3;whiteSpace=wrap;html=1;boundedLbl=1;backgroundOutline=1;size=15;fontSize=20;fontStyle=1;fillColor=#12D356;sketch=1;opacity=50;" parent="1" vertex="1">
          <mxGeometry x="710" y="439" width="90" height="111" as="geometry" />
        </mxCell>
        <mxCell id="M_qrSPq5CSGo5l-JPhvI-31" value="&lt;b&gt;InMemory Broker&lt;/b&gt;" style="rounded=1;whiteSpace=wrap;html=1;shadow=0;glass=0;labelBackgroundColor=none;sketch=1;fillStyle=auto;fontSize=20;strokeColor=#36393d;fillColor=#FFFF26;opacity=50;" parent="1" vertex="1">
          <mxGeometry x="215" y="610" width="410" height="60" as="geometry" />
        </mxCell>
        <mxCell id="ZrOXXM6fzs_e_1bx1SVP-1" value="Postgres" style="shape=cylinder3;whiteSpace=wrap;html=1;boundedLbl=1;backgroundOutline=1;size=15;fontSize=20;fontStyle=1;fillColor=#12D356;sketch=1;opacity=50;" parent="1" vertex="1">
          <mxGeometry x="490" y="439" width="90" height="111" as="geometry" />
        </mxCell>
        <mxCell id="ZrOXXM6fzs_e_1bx1SVP-2" value="Postgres" style="shape=cylinder3;whiteSpace=wrap;html=1;boundedLbl=1;backgroundOutline=1;size=15;fontSize=20;fontStyle=1;fillColor=#12D356;sketch=1;opacity=50;" parent="1" vertex="1">
          <mxGeometry x="280" y="439" width="90" height="111" as="geometry" />
        </mxCell>
        <mxCell id="ZrOXXM6fzs_e_1bx1SVP-4" value="Postgres" style="shape=cylinder3;whiteSpace=wrap;html=1;boundedLbl=1;backgroundOutline=1;size=15;fontSize=20;fontStyle=1;fillColor=#12D356;sketch=1;opacity=50;" parent="1" vertex="1">
          <mxGeometry x="70" y="439" width="90" height="111" as="geometry" />
        </mxCell>
      </root>
    </mxGraphModel>
  </diagram>
</mxfile>
